<svg viewBox="0 0 96 96" xml:space="preserve" xmlns="http://www.w3.org/2000/svg"><path d="m35.271 38.444-2.828-2.829a2 2 0 1 0-2.828 2.829l2.828 2.829c.391.391.902.586 1.414.586s1.023-.195 1.414-.585a2 2 0 0 0 0-2.83zM48 36a2 2 0 0 0 2-2v-4a2 2 0 0 0-4 0v4a2 2 0 0 0 2 2zM28 52h-4a2 2 0 0 0 0 4h4a2 2 0 0 0 0-4zm44 0h-4a2 2 0 0 0 0 4h4a2 2 0 0 0 0-4zm-5.615-16.385a2 2 0 0 0-2.828 0l-2.828 2.829a2 2 0 0 0 2.828 2.828l2.828-2.829a2 2 0 0 0 0-2.828zM48 40c-7.72 0-14 6.28-14 14 0 2.45.652 4.871 1.888 7.002a1.997 1.997 0 0 0 1.73.998h20.764c.714 0 1.373-.38 1.73-.998A13.974 13.974 0 0 0 62 54c0-7.72-6.28-14-14-14zm9.157 18H38.843A9.954 9.954 0 0 1 38 54c0-5.514 4.486-10 10-10s10 4.486 10 10a9.954 9.954 0 0 1-.843 4z" fill="#ffffff" class="fill-000000"></path></svg>